<svg width="1924" height="408" viewBox="0 0 1924 408" fill="none" xmlns="http://www.w3.org/2000/svg">
<path d="M0 325.133C461.235 48.3729 1368.58 1.57538 1923.86 46.662V407.399H0V325.133Z" fill="white"/>
<path d="M140.725 152.59C501.266 -27.2412 1294.63 -10.4763 1572.32 17.0745C653.765 -6.62305 168.435 198.264 51.187 256.69C149.134 184.703 151.69 157.295 140.725 152.59Z" fill="#BB2025"/>
<path d="M1.80762 324.775C486.553 27.2726 1500.52 1.0487 1921.81 45.7739C935.483 35.2902 353.689 329.14 250.919 406.318C246.594 353.086 171.492 319.173 1.80762 324.775Z" fill="#BB2025"/>
<path d="M444.531 329.007C756.549 199.531 967.337 155.581 1033.73 149.79C912.67 165.217 581.207 331.043 556.889 341.008C554.305 334.471 549.45 315.637 444.531 329.007Z" fill="#BB2025"/>
</svg>
