<svg xmlns="http://www.w3.org/2000/svg" width="158" height="94" fill="none"  xmlns:v="https://vecta.io/nano"><path fill-rule="evenodd" d="M14.904.009l-.54.055c-.975.094-2.006.371-3.028.813C8.921 1.919 6.649 3.997 4.692 6.95 1.923 11.129.418 15.942.046 21.808a60.46 60.46 0 0 0 0 4.733c.168 2.538.595 4.956 1.243 7.041.291.936.279.9.519 1.552.745 2.019 1.833 4.095 3.022 5.761.814 1.142 2.029 2.464 2.918 3.177 1.801 1.446 3.631 2.217 5.863 2.473.61.07 2.578.059 3.394-.018 2.731-.259 4.959-1.024 6.943-2.384.632-.433 1.169-.888 1.795-1.519 1.157-1.167 2.034-2.424 2.853-4.096 1.179-2.405 1.804-4.748 2.218-8.326l.021-.18-.435-.025c-.239-.014-.981-.042-1.65-.063l-2.044-.075-4.573-.148c-.012.012-.064.343-.116.734-.233 1.779-.595 3.17-1.22 4.688-.831 2.019-1.722 3.188-2.867 3.762-.528.265-.904.349-1.553.35-2.005.001-3.652-1.279-4.918-3.822-1.101-2.212-1.79-4.901-2.042-7.972a54.38 54.38 0 0 1-.001-4.558c.262-3.822.907-6.582 2.09-8.946.848-1.695 2.056-2.858 3.377-3.249a5.06 5.06 0 0 1 2.132-.141c2.251.322 3.731 1.936 4.463 4.869.227.908.416 2.303.47 3.459l.025.53.428.024c.236.013.949.041 1.585.061l7.068.256c.019-.019-.139-1.967-.204-2.506-.532-4.467-1.69-7.968-3.578-10.824-.609-.921-1.21-1.657-2.013-2.464-2.259-2.27-4.968-3.555-8.217-3.898-.41-.043-1.914-.082-2.141-.056zm70.067 2.087a1 1 0 0 0-.395.528c-.036.121-.063.732-.148 3.298-.023.689-.02.725.063.902.105.224.297.401.492.453.127.034 1.521.095 4.205.183l.781.026v.373c0 .205-.026 1.019-.057 1.808l-.716 19.165c-.246 5.803-.243 7.172.022 8.942.322 2.152 1.041 4.2 2.061 5.877 1.9 3.123 5.122 5.272 9.046 6.034 1.189.231 2.29.328 3.703.328 2.899-.001 5.163-.492 7.289-1.582 1.111-.569 2.029-1.238 2.966-2.16 1.934-1.902 3.243-4.407 3.935-7.528.395-1.78.515-3.015.642-6.614l.735-19.747.164-3.73c.026-.026 2.422.044 3.575.105 1.096.057 1.407.05 1.58-.039a.94.94 0 0 0 .425-.505c.034-.129.077-.987.153-3.013.041-1.117.028-1.195-.247-1.472-.165-.166-.232-.207-.371-.225-.094-.012-.908-.049-1.81-.082l-13.751-.52c-1.094-.043-1.248-.001-1.42.384-.067.151-.081.301-.109 1.125l-.071 1.742c-.059 1.18-.053 1.413.038 1.627.113.262.272.358.665.4.175.019 1.325.069 2.555.112l2.56.101.323.023-.025.646-.176 4.797-.078 2.076-.116 3.065-.54 14.432c-.072 1.903-.21 3.041-.516 4.259-.912 3.625-3.044 5.882-6.177 6.538-.736.154-1.241.2-2.198.199-1.714-.001-3.003-.261-4.261-.858-2.542-1.207-4.085-3.792-4.453-7.462-.134-1.34-.135-1.306.17-9.117l.658-17.826.061-1.335.018-.093.74.025 1.743.064c3.275.13 3.049.126 3.208.059.331-.139.512-.426.537-.849a201.16 201.16 0 0 0 .078-1.988l.062-1.712-.084-.189c-.106-.242-.289-.432-.463-.48-.075-.021-.831-.064-1.679-.096l-2.469-.098-12.016-.45-.752-.021-.158.098zM61.141 8.317a14.33 14.33 0 0 0-.043.689l-.078 1.474-.211 3.86-.483 8.729c-.011.139-.037.619-.058 1.067l-1.044 18.823.378.027 1.284.084 4.34.27 1.241.081.315.025.023-.169c.013-.093.058-.641.101-1.217l.479-6.265 1.103-14.373.267-.543c.839-1.71 1.878-2.633 3.3-2.934.312-.066 1.095-.065 1.427.002 1.252.252 2.243 1.068 3.088 2.543.982 1.713 1.417 3.788 1.294 6.168l-.082 1.399-.964 15.485-.076 1.441v.231l.53.027 1.051.062 1.485.096 2.179.136 2.417.154c.029.001.053-.141.069-.416l.853-13.704.236-3.744c.084-1.231.095-3.893.021-4.752-.251-2.9-.894-5.322-2.034-7.662-.821-1.685-1.752-3.019-2.858-4.094-1.221-1.187-2.527-1.894-4.134-2.237-.46-.098-.554-.105-1.494-.107-.822-.002-1.073.011-1.389.071-.774.145-1.739.494-2.449.886-.603.332-1.543 1.001-1.931 1.374-.075.072-.15.131-.167.131s-.02-.109-.007-.242c.036-.382.183-2.945.169-2.958a889.26 889.26 0 0 0-7.714-.098h-.411l-.022.184zm-17.768.107c-2.177.223-4.087.898-5.786 2.046-.536.362-.892.655-1.422 1.173-1.409 1.374-2.343 3.028-2.817 4.986-.184.761-.356 2.082-.278 2.131.025.015.405.049.844.074l1.397.084 5.227.32.309.01.029-.33c.101-1.147.489-2.152 1.093-2.827.394-.44 1.057-.839 1.684-1.012 1.121-.309 2.672-.236 3.766.177 1.3.492 2.311 1.616 2.69 2.993.155.561.192 1.104.137 1.997l-.335 5.403-.143 1.943c-.011.011-.156-.079-.323-.2-1.252-.904-2.835-1.582-4.39-1.879-.9-.172-1.32-.209-2.413-.21-1.265-.001-1.956.081-2.957.35a9.34 9.34 0 0 0-2.058.798c-1.025.517-1.967 1.202-2.817 2.049-1.523 1.519-2.354 3.159-2.683 5.296-.103.671-.094 2.17.017 2.83.283 1.678.842 2.939 1.937 4.367.339.442 1.316 1.435 1.772 1.8 1.671 1.34 3.633 2.12 5.921 2.355a16.34 16.34 0 0 0 2.469 0c1.474-.157 2.88-.59 4.176-1.285l.357-.192-.003.223c-.002.122-.025.546-.051.94s-.043.724-.037.733c.015.02.6.067 1.518.12l1.929.118 3.579.225c.417.026.436.024.45-.051.008-.043.043-.558.077-1.145l.194-3.162 1.023-16.507c.288-4.154.286-5.113-.019-6.697-.371-1.927-1.243-3.779-2.559-5.433a17.96 17.96 0 0 0-1.798-1.866c-1.893-1.599-4.05-2.499-6.577-2.746-.693-.068-2.456-.066-3.125.002zm2.334 23.12c1.006.144 1.788.428 2.505.908.308.206.922.781 1.081 1.013l.108.157-.026.513-.216 3.539-.071 1.086-.206.187c-.661.601-1.446.979-2.443 1.178-.495.099-1.873.099-2.469-.001-1.438-.239-2.528-.761-3.376-1.615-.485-.488-.788-.992-.969-1.611-.082-.279-.091-.385-.09-1.047.001-.792.04-1.027.266-1.605.361-.923 1.128-1.695 2.201-2.216 1.063-.516 2.334-.683 3.703-.487zM39.688 56.32c-3.534.116-6.387.297-8.833.561l-3.375.409c-4.801.658-9.762 1.831-12.556 2.967l-.309.126.014.271c.016.317-.055.597-.246.979-.596 1.191-2.576 2.866-5.418 4.585-.699.423-.748.457-.521.36.381-.162 1.929-.77 2.488-.977 3.926-1.453 8.377-2.702 12.961-3.637 2.404-.491 5.209-.958 7.908-1.319 2.723-.364 6.337-.723 8.814-.876l.829-.058c.305-.029 3.113-.167 4.359-.213a186.64 186.64 0 0 1 13.096 0l5.13.233 2.122.136 1.948.135 1.447.117 1.62.136 2.855.272 1.312.137c1.331.137 3.689.416 5.439.642l4.88.678 2.102.327 1.311.215a187.3 187.3 0 0 1 5.686 1.026c.37.075.691.135.714.134.098-.007-3.395-.881-5.359-1.34-3.923-.918-7.666-1.716-11.148-2.376l-1.871-.351-.984-.179a242.65 242.65 0 0 0-8.216-1.315c-2.337-.328-4.899-.648-6.693-.836l-1.292-.136-2.932-.273c-1.473-.131-4.099-.311-5.632-.387l-1.582-.079a173.4 173.4 0 0 0-10.068-.093zm12.305 4.771c-7.494.182-14.842.827-20.965 1.84l-3.298.583c-3.449.654-7.066 1.508-9.865 2.329l-.926.271c-2.324.681-5.26 1.698-7.609 2.636-1.467.586-4.178 1.768-4.544 1.982-.052.031.093.057.598.109 2.852.293 5.633.922 7.726 1.748a20.22 20.22 0 0 1 1.196.545c1.809.894 2.972 1.966 3.543 3.27.171.39.294.945.321 1.453a4.83 4.83 0 0 0 .035.458c.006 0 .199-.106.428-.236.585-.331 2.548-1.31 3.445-1.72 6.064-2.766 13.644-5.215 21.505-6.946l1.061-.234a153.93 153.93 0 0 1 6.751-1.277 158.25 158.25 0 0 1 8.332-1.148 156.49 156.49 0 0 1 5.535-.524l.945-.077c.209-.024 2.285-.154 3.722-.233 3.387-.186 5.251-.229 9.952-.228l6.789.085c3.633.138 6.357.291 9.431.532l4.398.387.983.098c.615.059 3.443.374 4.166.464l3.78.484 3.781.546 1.041.158c.085.013.146.014.135.003-.032-.034-2.849-.734-3.934-.978l-1.196-.271a263.97 263.97 0 0 0-11.746-2.348l-5.15-.853c-2.692-.426-7.01-1.016-9.798-1.339l-6.943-.718-5.188-.405c-2.843-.201-6.526-.364-10.068-.446a262.71 262.71 0 0 0-8.371.002zm43.562 2.623c.028.011.061.01.074-.003s-.01-.022-.051-.02-.054.011-.023.023zM61.791 67.86c-4.953.311-11.026 1.308-17.86 2.932-1.033.245-3.976 1.003-5.15 1.325l-2.517.71-3.423 1.024-3.086.983-.251.085 1.041.024c1.167.026 1.499.049 2.276.153 1.523.205 2.437.575 2.708 1.098.035.067.065.203.066.302l.003.18.289-.108 1.929-.737c.338-.133 2.753-1.037 3.26-1.221l1.543-.561 3.568-1.28.906-.319c1.678-.591 5.598-1.901 6.538-2.185l.791-.245c3.802-1.188 7.003-1.979 8.795-2.174l.308-.034h-.463c-.255 0-.828.023-1.273.051zm52.705.625c.028.011.061.01.074-.003s-.01-.022-.051-.02-.054.011-.023.023zm-8.717 5.817c-.229.096-.275.242-.277.886-.003.898.035.932 1.018.932.929 0 .962-.033.962-.963 0-.516-.006-.568-.087-.689-.122-.182-.293-.224-.935-.225-.398-.001-.577.015-.681.058zm3.615.14c-.08.115-.089 1.161-.01 1.226.028.024.34.054.719.069l.67.027-.025.702-.16 5.803-.081 2.826-.024.596-.661-.027c-.525-.021-.675-.016-.727.025-.096.075-.145 1.176-.058 1.292.055.073.131.078 1.494.11 1.236.029 1.443.026 1.491-.023.04-.04.063-.188.079-.507l.022-.45.249.271c.683.742 1.682 1.061 2.74.875 1.401-.246 2.374-1.152 2.863-2.669.243-.753.289-1.108.289-2.223-.001-.805-.014-1.076-.068-1.341-.212-1.052-.548-1.733-1.144-2.325-.612-.607-1.422-.929-2.34-.93-.845-.001-1.599.336-2.211.988l-.209.222.027-.926.076-3.525c-.011-.03-.05-.064-.085-.075-.076-.024-1.948-.099-2.482-.099-.343 0-.379.007-.434.086zm10.548.194c-.096.035-.158.095-.212.204-.067.135-.077.233-.077.763 0 .59.002.611.094.708.137.147.34.188.973.193.518.004.575-.003.675-.077.172-.128.216-.317.221-.934.004-.63-.032-.727-.308-.82-.216-.073-1.194-.1-1.366-.037zm3.447.241c-.076.054-.085.107-.111.625-.025.5-.021.574.036.631.051.052.196.072.724.103l.661.039-.008.33c-.004.181-.024.6-.044.931l-.094 1.726-.27 5.179-.081 1.429-.024.323-.218-.021c-.12-.012-.418-.032-.663-.046-.591-.032-.57-.057-.603.704-.022.519-.018.585.042.634.074.062.154.068 2.676.2 1.404.074 1.639.078 1.686.031.037-.037.066-.231.093-.616.051-.723.051-.723-.391-.754l-1.002-.07.024-.297a51.65 51.65 0 0 0 .061-1.15l.077-1.474.116-2.153.116-2.25c.216-3.94.213-3.846.14-3.899s-.387-.082-1.53-.135l-1.08-.059c-.188-.016-.271-.007-.333.038zm6.459.255a1 1 0 0 0-.222.056c-.097.06-.158.277-.199.713-.077.816.005 1.005.471 1.087.342.06 1.107.057 1.23-.005.162-.081.228-.281.275-.827.075-.885-.025-.986-1.027-1.036a3.24 3.24 0 0 0-.528.013zm9.955.791c-.18.104-.265.458-.265 1.108 0 .601.057.657.752.736.714.081 1.002.034 1.113-.182.074-.145.141-.632.141-1.037 0-.394-.061-.494-.359-.587-.291-.091-1.245-.118-1.382-.039zm-4.991.959c-.339.151-.658.315-.709.364-.088.085-.096.133-.15.898-.031.445-.063.815-.07.824s-.244-.002-.526-.023c-.536-.04-.665-.023-.7.093-.049.16-.1 1.067-.064 1.135.054.101.099.111.633.141.264.015.5.039.523.053.031.019.027.238-.016.799l-.117 1.529-.14 1.804c-.046.576-.084 1.379-.086 1.784-.002.651.008.766.079.98.152.454.39.74.777.938.478.243 1.345.319 1.819.158.538-.182.952-.619 1.158-1.222.114-.333.104-.384-.125-.628-.293-.312-.605-.448-.716-.313a1.49 1.49 0 0 0-.12.262c-.191.513-.575.737-.955.556-.281-.134-.338-.358-.284-1.113l.271-3.692.102-1.387c.02-.275.037-.34.087-.34.034 0 .432.029.884.065 1.024.082.948.127 1.01-.597.049-.561.038-.653-.086-.693-.045-.014-.457-.055-.914-.091l-.832-.065.006-.192a59.26 59.26 0 0 1 .075-1.177l.07-.984-.089-.073c-.049-.04-.109-.072-.134-.072s-.321.125-.661.276zm-35.854.811a2.61 2.61 0 0 0-1.918 1.899 4.54 4.54 0 0 0 .003 1.569c.166.68.501 1.09 1.153 1.414.47.233.875.355 1.553.468 1.185.198 1.636.395 1.836.803.078.16.092.245.092.576 0 .339-.013.416-.103.609-.129.278-.402.543-.723.702-.215.106-.297.125-.617.138-.204.008-.471-.004-.594-.027-.523-.098-1.002-.45-1.251-.921-.135-.255-.279-.792-.281-1.042-.002-.301-.073-.329-.762-.301-.405.016-.561.036-.594.077-.064.077-.046 3.21.019 3.314.041.066.101.072.651.072.71 0 .686.014.686-.427v-.277l.235.213a2.64 2.64 0 0 0 1.059.574c.253.071.405.087.866.087.66 0 1.015-.077 1.543-.335.466-.228.922-.687 1.145-1.153.235-.493.302-.814.296-1.416-.017-1.686-.695-2.343-2.868-2.774-1.559-.309-1.852-.509-1.852-1.258 0-.735.465-1.234 1.2-1.29.93-.07 1.651.502 1.832 1.455a3.09 3.09 0 0 1 .054.396c0 .211.063.232.695.232.469 0 .584-.011.633-.061s.061-.25.061-1.571c0-1.459-.003-1.513-.077-1.588s-.129-.078-.637-.078-.566.007-.636.078c-.055.055-.077.129-.077.255v.177l-.222-.173c-.292-.228-.464-.31-.856-.409-.434-.11-1.128-.111-1.545-.003zm-7.869.136c-1.085.233-1.844.982-2.07 2.044-.08.375-.049 1.18.059 1.55.083.286.267.653.407.813.408.468 1.264.826 2.298.962 1.007.132 1.53.314 1.787.621.246.294.29.958.09 1.368-.13.268-.461.585-.747.716-.26.12-.811.163-1.188.093-.83-.154-1.396-.838-1.522-1.839-.018-.145-.054-.289-.08-.32-.037-.045-.162-.057-.599-.057-.517 0-.559.006-.653.087l-.1.087.09 2.864c.013.469.005.465.72.442.527-.017.56-.022.63-.109.058-.073.071-.14.061-.335-.007-.134-.004-.244.007-.243s.123.089.251.196c.506.425 1.031.593 1.852.589.407-.002.572-.021.876-.1 1.067-.28 1.781-.991 2.027-2.022.045-.189.064-.423.061-.758-.014-1.658-.691-2.368-2.609-2.737l-.904-.174c-.871-.169-1.182-.382-1.285-.879-.082-.399.051-.884.322-1.169.284-.299.815-.446 1.309-.363a1.59 1.59 0 0 1 1.231.922c.11.234.223.677.224.876.001.211.069.233.699.219.472-.01.583-.024.636-.077.059-.06.061-.178.017-1.57-.026-.828-.063-1.536-.084-1.574-.033-.061-.101-.069-.61-.069-.692 0-.753.027-.742.324.004.099-.002.181-.013.181s-.102-.064-.203-.142c-.537-.415-1.462-.587-2.247-.419zm13.332.077c-.051.051-.062.159-.062.615 0 .383.015.571.048.613.039.049.175.066.702.086.36.014.659.03.665.037s-.001 1.442-.017 3.19l-.029 3.178-.617-.013c-.585-.012-.623-.009-.723.071l-.106.084v.578c0 .557.003.58.087.633.071.046.453.058 2.18.069 1.83.012 2.099.006 2.131-.045.02-.032.037-.334.037-.67l.001-.612-.099-.038c-.055-.021-.361-.038-.681-.038h-.582l.028-3.833c.027-3.611.025-3.837-.038-3.889-.055-.046-.316-.058-1.465-.067-1.242-.01-1.405-.004-1.46.051zm-21.307.251c-1.035.147-1.929.704-2.497 1.556-.989 1.482-1.103 3.929-.268 5.73.691 1.49 1.879 2.298 3.377 2.296 1.311-.001 2.371-.558 3.06-1.607a3.83 3.83 0 0 0 .533-1.109c.22-.668.279-1.078.276-1.9-.004-1.002-.128-1.691-.448-2.483-.506-1.254-1.428-2.112-2.578-2.402-.375-.094-1.085-.134-1.456-.081zm35.335.045c-.026.032-.056.283-.072.606-.036.736-.085.69.758.726l.654.028-.001.141c0 .078-.017.473-.037.878l-.155 3.608-.063 1.373-.024.403-.648-.026c-.842-.033-.789-.081-.823.739-.017.41-.011.485.047.556.064.08.121.085 1.724.154l2.095.091c.585.025.582.029.593-.586.011-.639.008-.708-.042-.758-.027-.027-.291-.056-.666-.074-.343-.016-.63-.037-.639-.046s.011-.625.044-1.368l.08-1.934.058-1.3.08-1.875c.041-1.052.04-1.163-.017-1.22-.071-.071-.431-.097-1.974-.145-.774-.024-.934-.019-.972.026zm9.737.489c-.088.099-.157 1.016-.088 1.173.05.114.14.131.881.174l.492.028v.145c0 .08-.026.527-.057.995l-.115 1.801-.23 3.443c-.007.007-.284-.007-.616-.03s-.639-.031-.681-.018c-.126.04-.151.143-.177.724-.022.477-.017.563.034.606.068.056.394.085 2.285.2l1.621.101c.475.031.467.043.502-.702.023-.499.019-.59-.032-.632-.036-.031-.291-.065-.67-.091-.336-.023-.617-.047-.624-.054s.024-.593.069-1.304l.273-4.318c.143-2.216.14-2.019.034-2.088-.07-.046-.334-.075-1.095-.122l-1.37-.085c-.335-.022-.372-.017-.436.054zm-53.677.089a3.75 3.75 0 0 0-1.028.373c-.315.174-.802.637-.983.934-.068.112-.138.195-.156.184s-.044-.19-.059-.398c-.045-.608-.069-.634-.539-.59l-1.273.112c-1.023.088-1.212.124-1.22.228-.009.129.012.536.043.817.049.449.047.448.788.373.335-.034.616-.055.623-.048s.049.414.092.904l.136 1.492.561 6.207c.094.987.094 1.037.008 1.062a9.04 9.04 0 0 1-.646.065c-.318.025-.611.063-.652.084-.067.036-.071.071-.047.432.063.969.043.943.687.881l1.304-.119c2.741-.242 2.534-.217 2.602-.323.046-.073.046-.162 0-.626-.037-.367-.073-.56-.112-.599-.05-.05-.141-.052-.72-.01-.364.026-.675.034-.69.017s-.047-.276-.071-.574l-.183-2.072-.026-.248.227.226c.657.654 1.588.928 2.564.757 1.94-.341 3.026-2.101 2.91-4.714-.114-2.564-1.21-4.37-2.896-4.773-.326-.078-.965-.106-1.246-.056zm40.437.406c.777.203 1.348.941 1.611 2.082.112.484.121 1.687.017 2.223-.34 1.755-1.341 2.648-2.655 2.368-.809-.172-1.347-.762-1.596-1.749a6.22 6.22 0 0 1 .082-3.108c.442-1.362 1.47-2.097 2.541-1.817zm23.328.2c-.073.062-.089.136-.128.588-.048.567-.027.688.128.722.048.011.34.038.647.06s.57.054.583.069.01.172-.008.347-.076.857-.13 1.513l-.173 2.066-.208 2.449-.138-.02a17.6 17.6 0 0 0-.654-.064c-.663-.056-.641-.073-.696.565-.052.599-.051.65.009.733.043.059.182.08.916.142l1.772.152c1.285.112 1.556.127 1.613.087.085-.059.198-1.18.129-1.284-.044-.066-.3-.109-.86-.144-.303-.019-.431-.042-.446-.08-.011-.029.026-.598.082-1.265l.449-5.356c.098-1.156.118-1.092-.362-1.13l-.682-.062-.887-.075-.696-.061c-.137-.017-.195-.007-.26.048zm-54.089.233c1.064.292 1.777 1.737 1.774 3.593-.002 1.181-.351 2.181-.938 2.687s-1.616.583-2.233.172c-.729-.486-1.171-1.392-1.301-2.673-.221-2.162.513-3.67 1.869-3.84a2.07 2.07 0 0 1 .829.062zm61.391.287c-.74.18-1.306.509-1.82 1.056-.606.647-1.001 1.469-1.236 2.576-.098.464-.105.56-.106 1.466-.002 1.015.014 1.144.209 1.788.185.605.528 1.165.98 1.596.347.331.649.532 1.066.712 1.511.649 3.169.349 4.286-.774.321-.323.628-.766.763-1.1.085-.21.085-.216.016-.36s-.071-.147-.622-.296c-.626-.169-.653-.166-.783.094-.368.735-1.091 1.31-1.798 1.431-.237.041-.328.038-.607-.016-.72-.14-1.237-.544-1.573-1.232-.255-.52-.339-.853-.365-1.445l-.022-.495.092.001c.051 0 .448.035.883.078l1.408.136 3.414.352c.107.017.152.004.209-.06.149-.166.168-1.27.039-2.278-.211-1.645-1.033-2.739-2.37-3.15-.568-.175-1.523-.212-2.063-.081zm-70.533.27c.523.083.973.403 1.323.942.522.802.748 1.761.711 3.014-.016.528-.037.707-.12 1.022-.155.58-.338.923-.679 1.271-.336.342-.586.477-1.004.543-1.035.162-1.94-.523-2.375-1.795a7.24 7.24 0 0 1-.305-2.417c.092-1.443.764-2.401 1.806-2.576.279-.047.358-.047.643-.002zm-15.121.328c-.83.167-1.384.449-1.942.987-.833.803-1.281 2.126-1.208 3.564.124 2.451 1.115 4.157 2.774 4.779.682.255 1.563.284 2.368.077 1.314-.338 2.382-1.442 2.695-2.785.08-.343.073-.433-.046-.558l-.104-.109h-.586c-.422 0-.597.014-.626.049-.022.027-.069.162-.103.301s-.141.413-.235.61c-.285.594-.843 1.09-1.384 1.231-.429.112-.96.061-1.394-.132-.55-.245-1.157-.974-1.428-1.717-.126-.345-.203-.694-.155-.709.054-.017.499-.087 1.742-.274l1.794-.27 1.466-.212c.83-.112.859-.119.914-.236.04-.083.031-.179-.052-.582-.487-2.375-1.498-3.724-3.009-4.015a5.34 5.34 0 0 0-1.48.002zm93.985.175c-.919.167-1.597.68-1.965 1.484-.354.776-.368 1.894-.032 2.518.284.526 1.061 1.043 1.999 1.33l.655.202c.516.16.913.373 1.113.597.206.231.234.335.211.807-.014.299-.032.369-.152.59-.264.485-.724.749-1.307.75-.728.001-1.334-.291-1.676-.809-.228-.346-.296-.592-.319-1.153-.016-.387-.034-.505-.083-.549-.072-.064-1.041-.199-1.179-.164-.154.039-.148 0-.453 2.825-.044.412-.028.552.071.59.058.022.967.139 1.084.139.111 0 .192-.148.219-.401l.028-.255.315.323c.257.264.376.353.643.482a3.65 3.65 0 0 0 1.967.318c1.24-.172 2.07-.921 2.361-2.131.117-.49.116-1.358-.004-1.706-.284-.827-.931-1.3-2.476-1.81-1.046-.345-1.433-.558-1.605-.883-.106-.198-.087-.696.037-.967.276-.608.817-.858 1.544-.714.521.103.904.382 1.136.828.159.307.214.549.219.977.007.484.014.49.724.553.588.053.625.043.663-.173.021-.118.093-.737.257-2.219.064-.585.066-.669.016-.747-.032-.048-.079-.088-.105-.088s-.278-.026-.561-.058c-.616-.069-.65-.059-.686.214l-.025.193-.254-.239a2.54 2.54 0 0 0-1.163-.592c-.353-.079-.954-.109-1.217-.061zm-6.84.576c.592.208.999.654 1.249 1.365.084.24.173.801.173 1.095v.262l-.145-.019a55.36 55.36 0 0 0-.955-.097l-3.25-.328c-.02-.019.268-.814.365-1.009.333-.666.871-1.159 1.443-1.32.274-.078.825-.052 1.12.052zm-86.152.589c.325.075.602.241.9.541a2.09 2.09 0 0 1 .49.7c.179.367.387.953.352.987-.008.007-.37.068-.805.134l-1.292.198-2.133.309h-.096l.025-.349c.061-.862.33-1.572.761-2.009a1.86 1.86 0 0 1 .895-.511 3.04 3.04 0 0 1 .905-.001zm-9.634.158c-.872.114-1.718.541-2.282 1.154-.792.861-1.167 2.15-1.037 3.568.185 2.029.957 3.559 2.176 4.314 1.151.713 2.753.712 3.959-.001.953-.563 1.614-1.533 1.797-2.635l.054-.327-.098-.129c-.095-.126-.105-.129-.375-.125-.39.005-.942.05-.971.08-.014.014-.067.197-.118.407-.141.576-.319.901-.711 1.294-.181.181-.407.368-.503.415-.769.377-1.705.224-2.358-.386-.264-.246-.575-.657-.724-.954-.153-.304-.359-.905-.322-.939.027-.025 4.254-.88 5.349-1.082.419-.077.564-.147.563-.27-.001-.1-.18-.797-.309-1.201-.14-.437-.42-1.09-.611-1.421-.774-1.348-1.977-1.957-3.479-1.761zm.902 1.43c.625.216 1.156.815 1.477 1.665.152.401.154.425.043.45-.048.011-.972.195-2.054.41l-2.054.413c-.085.021-.087.015-.087-.327 0-1.321.559-2.313 1.466-2.602a2.32 2.32 0 0 1 1.209-.009zm-7.63.22c-.275.074-.524.155-.554.18-.054.045-.048.28.012.427.023.056-.014.048-.215-.047-.352-.167-.602-.208-1.135-.186a2.51 2.51 0 0 0-.829.14c-.851.279-1.455.833-1.761 1.616-.1.256-.107.308-.108.892-.002.68.047.916.295 1.444.31.66.697.972 1.47 1.184.292.08.38.086 1.127.072 1.641-.031 1.868-.024 2.109.07.426.165.66.576.665 1.17.003.304-.008.353-.13.595-.229.455-.621.739-1.185.859-.697.148-1.304-.022-1.754-.491-.215-.225-.477-.674-.574-.984-.063-.203-.105-.252-.217-.252-.166 0-1.035.239-1.108.304-.091.082-.077.191.123.957l.354 1.377c.111.437.226.835.256.883.071.114.133.111.723-.039.617-.156.641-.181.549-.551l-.062-.267c0-.009.135.051.299.134a2.21 2.21 0 0 0 1.133.267c.655 0 1.261-.166 1.82-.498.601-.357 1-.835 1.209-1.449.101-.295.11-.37.11-.866a3.1 3.1 0 0 0-.347-1.552c-.317-.679-.666-.967-1.446-1.193-.273-.079-.371-.084-1.717-.085-1.426-.001-1.427-.001-1.634-.096-.367-.166-.566-.577-.538-1.108.032-.61.415-1.02 1.093-1.169.445-.098.852-.045 1.191.154.347.205.762.774.857 1.176.034.143.125.245.217.245a8.6 8.6 0 0 0 1.076-.274c.146-.078.158-.011-.41-2.209l-.179-.692c-.049-.188-.122-.279-.218-.275-.036.002-.29.064-.565.138z" fill="#ad312d"/></svg>