<?xml version="1.0" standalone="no"?>
<!DOCTYPE svg PUBLIC "-//W3C//DTD SVG 20010904//EN"
 "http://www.w3.org/TR/2001/REC-SVG-20010904/DTD/svg10.dtd">
<svg version="1.0" xmlns="http://www.w3.org/2000/svg"
 width="1264.000000pt" height="1264.000000pt" viewBox="0 0 1264.000000 1264.000000"
 preserveAspectRatio="xMidYMid meet">
<metadata>
Created by potrace 1.11, written by Peter Selinger 2001-2013
</metadata>
<g transform="translate(0.000000,1264.000000) scale(0.100000,-0.100000)"
fill="#000000" stroke="none">
<path d="M1140 10077 c-3 -3 -27 -8 -54 -11 -27 -4 -57 -11 -68 -17 -10 -5
-18 -8 -18 -5 0 12 -214 -90 -231 -111 -6 -7 -15 -13 -20 -13 -12 0 -89 -64
-168 -140 -62 -59 -231 -276 -231 -297 0 -3 -6 -14 -14 -22 -24 -27 -131 -242
-161 -321 -15 -41 -31 -84 -36 -95 -15 -36 -64 -211 -73 -259 -3 -14 -7 -34
-10 -44 -3 -9 -7 -35 -11 -57 -5 -41 -11 -77 -20 -130 -19 -115 -27 -606 -12
-722 9 -68 19 -137 24 -158 2 -11 10 -51 18 -90 8 -38 17 -79 19 -90 6 -29 40
-140 66 -215 26 -73 125 -281 167 -351 61 -99 68 -109 75 -109 4 0 8 -7 8 -15
0 -8 4 -15 8 -15 4 0 15 -13 25 -28 27 -48 188 -206 252 -249 117 -78 261
-138 365 -150 67 -8 285 -8 365 1 39 4 106 16 150 27 44 11 85 22 90 23 6 1
27 10 49 19 21 9 42 17 47 17 16 0 188 103 229 138 232 196 373 448 451 807
11 50 22 106 24 125 3 19 9 61 14 93 4 33 4 60 -1 63 -5 3 -66 7 -136 9 -255
7 -498 16 -519 20 -31 5 -38 -10 -49 -102 -15 -141 -87 -350 -163 -478 -37
-61 -111 -134 -161 -158 -54 -25 -168 -31 -218 -11 -18 7 -33 12 -35 12 -1 -1
-23 10 -48 25 -40 24 -92 74 -148 142 -37 46 -141 277 -155 346 -3 13 -11 49
-20 79 -16 60 -33 153 -44 233 -9 67 -8 492 1 577 9 78 45 289 54 310 3 8 7
22 8 30 4 32 58 178 87 234 56 112 109 178 187 234 54 39 105 54 195 58 191 7
328 -102 401 -319 35 -104 49 -188 60 -347 2 -19 3 -37 4 -40 1 -3 27 -6 59
-7 259 -8 387 -13 511 -18 155 -7 167 -3 150 42 -5 15 -5 23 2 23 6 0 7 5 3
12 -4 6 -9 32 -10 57 -1 25 -5 60 -8 76 -3 17 -8 53 -11 80 -18 134 -63 316
-112 450 -29 79 -105 236 -134 276 -10 15 -19 30 -19 34 0 3 -6 12 -12 19 -7
8 -20 24 -28 36 -60 89 -148 179 -250 256 -82 62 -232 144 -263 144 -9 0 -18
4 -21 9 -3 5 -23 12 -43 17 -21 4 -40 8 -43 9 -11 3 -67 16 -90 21 -36 7 -294
17 -300 11z"/>
<path d="M6785 9900 c-20 -22 -25 -59 -29 -231 -3 -105 0 -130 13 -148 19 -25
47 -29 276 -35 l150 -4 -1 -98 c-1 -89 -7 -246 -19 -554 -2 -58 -7 -172 -10
-255 -3 -82 -7 -202 -10 -265 -2 -63 -7 -182 -10 -265 -2 -82 -7 -208 -10
-279 -3 -71 -8 -209 -10 -307 -2 -98 -6 -183 -10 -189 -3 -5 -3 -10 2 -10 4 0
9 -36 10 -80 1 -64 22 -214 37 -265 2 -5 5 -14 6 -20 31 -110 104 -268 165
-355 83 -118 220 -244 320 -295 22 -11 42 -22 45 -25 25 -27 246 -103 340
-117 19 -2 51 -8 70 -12 19 -4 61 -7 92 -6 32 0 58 -2 58 -5 0 -3 17 -4 38 -2
36 3 48 3 75 1 49 -3 236 20 258 32 9 4 18 6 21 4 8 -8 172 51 249 90 284 141
491 437 564 805 21 105 33 228 40 410 15 374 25 640 30 785 5 149 13 376 20
550 3 66 7 185 10 265 3 80 7 186 10 235 2 50 4 100 4 112 l1 23 158 -6 c209
-8 203 -8 234 -6 49 3 57 32 64 214 6 159 5 167 -15 187 -12 12 -31 21 -43 22
-13 0 -59 2 -103 4 -44 2 -152 6 -240 9 -88 3 -212 8 -275 11 -63 2 -185 7
-270 10 -446 17 -443 17 -455 -13 -7 -18 -13 -92 -19 -255 -3 -81 -1 -101 13
-119 19 -23 12 -22 301 -33 100 -4 168 -11 172 -18 3 -6 5 -47 3 -91 -9 -198
-18 -449 -19 -533 0 -51 -3 -93 -6 -93 -3 0 -6 -51 -6 -113 -1 -61 -4 -188 -8
-282 -3 -93 -8 -231 -11 -305 -2 -74 -7 -198 -10 -275 -3 -77 -8 -189 -10
-250 -8 -225 -23 -333 -67 -465 -41 -129 -82 -194 -178 -290 -118 -118 -258
-171 -460 -172 -106 0 -158 4 -202 18 -9 3 -25 6 -35 8 -120 24 -259 123 -336
239 -35 52 -91 167 -81 167 3 0 0 9 -6 21 -6 11 -13 30 -15 42 -3 12 -9 42
-14 67 -26 120 -27 227 -6 725 4 94 9 217 10 275 2 58 6 168 9 245 8 183 17
449 20 550 1 45 6 86 10 93 4 7 3 12 -1 12 -5 0 -7 17 -6 38 3 35 15 315 17
394 l1 38 170 -6 c94 -3 196 -6 228 -8 44 -1 62 2 77 16 11 11 20 22 21 26 2
15 9 141 13 235 3 90 2 101 -18 123 -23 25 -18 25 -401 39 -60 2 -186 6 -280
10 -750 28 -700 27 -720 5z"/>
<path d="M4896 9422 c-3 -5 -7 -55 -10 -111 -3 -56 -8 -106 -11 -111 -3 -5 -1
-11 5 -15 6 -4 7 -12 3 -18 -4 -7 -8 -28 -9 -47 -1 -19 -5 -96 -9 -170 -4 -74
-8 -157 -10 -185 -1 -27 -6 -106 -10 -175 -3 -69 -8 -156 -10 -195 -2 -38 -7
-115 -10 -170 -3 -55 -8 -136 -10 -180 -3 -44 -7 -127 -10 -185 -4 -58 -8
-139 -10 -180 -5 -115 -15 -287 -20 -370 -3 -41 -7 -122 -10 -180 -3 -58 -7
-143 -10 -190 -4 -47 -8 -122 -10 -167 -2 -45 -6 -86 -9 -91 -3 -5 0 -16 7
-25 9 -13 37 -18 122 -22 61 -3 136 -8 168 -10 32 -3 99 -7 150 -10 51 -3 107
-7 125 -9 17 -1 33 0 34 3 2 10 10 98 23 266 3 39 7 93 9 120 6 61 15 189 21
270 8 122 17 231 20 265 2 19 7 80 10 135 4 55 8 116 11 135 2 19 6 71 9 115
3 44 7 103 9 130 3 28 7 86 11 130 3 44 8 107 11 139 6 70 44 148 108 222 115
131 306 148 434 39 67 -58 157 -210 177 -300 2 -11 11 -49 19 -85 11 -49 14
-109 10 -245 -2 -99 -6 -200 -8 -225 -3 -25 -7 -99 -11 -165 -4 -66 -8 -138
-10 -160 -2 -22 -7 -89 -10 -150 -3 -60 -8 -141 -10 -180 -11 -153 -17 -253
-20 -305 -1 -30 -6 -110 -10 -178 l-7 -122 29 1 c15 0 60 -2 98 -5 39 -3 108
-8 155 -10 47 -3 128 -8 180 -12 146 -10 156 -9 157 9 5 86 15 254 18 297 3
30 7 100 11 155 3 55 7 127 10 160 2 33 6 105 9 160 3 55 8 132 10 170 3 39 7
99 9 135 2 36 7 115 12 175 14 180 9 680 -6 680 -1 0 -3 9 -4 20 -4 24 -17 96
-20 110 -38 152 -114 342 -179 450 -56 92 -141 193 -225 267 -40 35 -174 108
-198 108 -11 0 -24 4 -29 9 -31 30 -262 30 -341 1 -16 -6 -31 -12 -34 -12 -40
-4 -146 -64 -243 -139 l-28 -21 7 113 c3 63 8 117 10 121 2 4 -1 10 -7 13 -16
10 -637 17 -643 7z"/>
<path d="M3420 9400 c-25 -5 -63 -11 -85 -15 -53 -9 -186 -60 -255 -98 -148
-82 -274 -211 -345 -356 -37 -75 -74 -192 -81 -256 -3 -22 -6 -52 -8 -67 -3
-16 -1 -28 2 -29 11 -2 81 -6 187 -13 55 -4 127 -8 160 -11 33 -2 108 -6 168
-9 l107 -6 2 28 c8 154 100 277 229 309 68 16 222 9 279 -14 8 -3 20 -7 27 -9
22 -4 101 -63 128 -96 37 -43 74 -126 80 -174 2 -22 6 -49 9 -61 3 -13 2 -23
-2 -23 -4 0 -7 -30 -8 -68 0 -37 -4 -114 -7 -172 -4 -58 -10 -150 -13 -205 -5
-90 -10 -147 -13 -167 -2 -11 -30 2 -86 38 -48 32 -185 91 -229 100 -11 2 -46
9 -76 15 -75 16 -271 18 -339 3 -180 -38 -318 -106 -440 -219 -170 -158 -251
-348 -245 -576 1 -53 8 -116 14 -140 7 -24 13 -51 15 -59 5 -24 37 -102 53
-130 32 -54 67 -105 77 -112 5 -4 7 -8 4 -8 -11 0 104 -114 161 -159 82 -65
237 -137 335 -155 17 -3 46 -8 65 -12 56 -11 259 -7 329 5 66 12 211 64 246
87 33 23 37 17 32 -51 -2 -35 -1 -69 2 -74 4 -6 47 -12 96 -15 50 -3 90 -5 90
-6 0 -1 36 -3 80 -5 98 -4 250 -14 288 -19 30 -4 47 15 45 50 -1 19 11 232 17
308 2 22 6 93 10 156 3 63 8 135 10 160 2 25 7 99 11 165 3 66 8 138 9 160 3
47 16 247 20 325 11 192 15 255 21 335 3 50 8 117 10 150 6 96 5 308 -1 335
-3 14 -7 41 -10 61 -6 41 -50 180 -71 221 -8 15 -15 31 -15 35 -1 5 -10 20
-20 35 -10 14 -19 31 -19 36 0 6 -3 12 -7 14 -5 2 -20 21 -35 43 -54 79 -163
192 -228 238 -25 17 -47 33 -50 37 -10 11 -126 69 -180 89 -51 19 -156 47
-190 51 -54 6 -323 6 -360 0z m220 -1845 c66 -7 79 -9 105 -19 75 -28 118 -54
159 -94 l48 -46 -6 -111 c-15 -266 -21 -325 -36 -325 -5 0 -15 -6 -22 -12 -25
-24 -93 -56 -148 -70 -55 -15 -207 -17 -247 -4 -12 4 -31 9 -44 11 -48 9 -147
64 -190 106 -69 66 -92 118 -94 214 -3 119 36 201 127 269 67 49 127 73 213
83 28 3 52 7 53 9 2 1 9 1 15 -1 7 -2 37 -7 67 -10z"/>
<path d="M3148 5575 c-2 -2 -79 -6 -173 -10 -93 -3 -188 -8 -210 -10 -22 -2
-80 -6 -130 -9 -49 -4 -101 -8 -115 -10 -14 -3 -54 -7 -90 -10 -36 -4 -75 -8
-86 -10 -11 -2 -47 -7 -79 -10 -61 -7 -112 -14 -155 -22 -14 -2 -43 -7 -65
-10 -22 -3 -71 -12 -110 -19 -38 -8 -85 -17 -104 -20 -19 -3 -37 -7 -40 -9 -3
-2 -22 -7 -41 -10 -71 -12 -96 -17 -125 -26 -16 -5 -43 -12 -60 -15 -16 -3
-34 -7 -40 -9 -5 -1 -30 -8 -55 -15 -85 -24 -235 -73 -268 -88 -24 -12 -32
-22 -32 -42 -1 -65 -76 -163 -205 -269 -59 -48 -262 -182 -276 -182 -7 0 -9
-3 -6 -6 4 -4 30 4 59 16 84 36 437 160 498 174 8 2 56 16 106 30 50 15 100
29 110 31 10 2 82 20 159 40 77 19 149 37 160 39 11 2 54 11 95 19 41 9 91 19
110 22 19 3 51 10 70 15 19 5 57 12 83 14 26 3 51 7 55 10 4 2 31 7 61 11 30
4 63 9 75 11 38 8 70 13 125 19 30 4 63 9 75 11 12 2 46 7 76 10 30 3 66 7 80
9 14 2 54 6 90 9 36 4 76 9 90 11 14 2 59 7 100 10 41 3 91 8 110 10 19 2 85
7 145 11 61 3 128 8 150 9 272 19 1210 26 1455 11 52 -3 149 -8 215 -11 66 -3
152 -7 190 -10 39 -3 106 -7 150 -10 171 -12 294 -22 370 -31 28 -3 73 -7 100
-9 50 -4 128 -11 195 -20 19 -2 60 -7 90 -10 30 -3 71 -8 90 -10 77 -9 136
-16 160 -20 14 -2 51 -7 83 -10 32 -4 68 -8 80 -11 12 -2 42 -7 67 -10 25 -3
52 -7 60 -9 8 -1 44 -6 80 -10 36 -4 74 -9 85 -11 11 -3 38 -7 60 -10 36 -5
157 -24 255 -39 19 -3 46 -8 60 -11 14 -3 39 -8 55 -11 17 -2 41 -7 55 -9 14
-3 36 -7 50 -9 36 -5 82 -15 103 -21 9 -3 17 -2 17 3 0 7 -59 25 -125 38 -11
2 -40 9 -65 15 -25 6 -63 15 -85 21 -72 17 -80 19 -100 23 -11 2 -42 10 -70
16 -50 12 -73 17 -110 24 -11 2 -63 14 -115 26 -52 12 -106 23 -120 26 -14 3
-90 18 -170 34 -165 33 -150 30 -330 64 -137 26 -158 29 -220 40 -80 14 -97
16 -130 22 -19 3 -62 10 -95 16 -33 6 -71 12 -85 13 -14 2 -39 6 -56 9 -30 6
-44 8 -149 21 -27 4 -61 8 -75 11 -14 2 -45 6 -70 9 -63 8 -98 13 -150 20 -62
8 -115 14 -180 21 -30 3 -66 7 -80 10 -14 2 -52 7 -85 9 -33 3 -82 7 -110 10
-27 3 -80 7 -116 10 -36 3 -83 7 -105 9 -21 3 -82 7 -134 11 -52 3 -122 8
-155 11 -165 11 -333 16 -677 18 -208 2 -379 2 -380 1z"/>
<path d="M4137 5193 c-1 -1 -74 -4 -162 -7 -223 -7 -490 -22 -555 -31 -19 -2
-73 -7 -120 -10 -47 -3 -103 -8 -125 -10 -22 -3 -62 -8 -90 -10 -27 -3 -63 -7
-80 -9 -16 -2 -61 -7 -100 -10 -38 -4 -77 -8 -85 -11 -8 -2 -40 -6 -70 -9 -30
-3 -66 -8 -79 -11 -12 -2 -42 -7 -65 -9 -22 -3 -50 -7 -61 -10 -45 -9 -111
-20 -130 -21 -11 -1 -29 -5 -40 -8 -18 -5 -38 -9 -130 -22 -11 -1 -87 -17
-170 -35 -82 -17 -159 -33 -170 -36 -45 -9 -64 -14 -165 -38 -117 -28 -462
-126 -527 -150 -24 -8 -43 -13 -43 -9 0 3 -6 1 -12 -4 -7 -6 -26 -14 -43 -18
-37 -10 -34 -9 -65 -22 -14 -5 -63 -23 -110 -39 -47 -16 -86 -32 -88 -36 -2
-5 -9 -8 -17 -8 -12 0 -151 -53 -222 -85 -18 -8 -50 -22 -70 -31 -21 -9 -51
-23 -68 -32 -16 -9 -30 -15 -30 -13 0 1 -16 -5 -35 -13 -19 -8 -28 -16 -20
-17 8 -1 24 -3 35 -4 11 -2 39 -5 62 -7 24 -1 43 -7 43 -11 0 -5 4 -6 9 -3 5
3 33 1 62 -4 30 -6 68 -13 84 -15 188 -32 420 -115 553 -199 42 -26 120 -99
153 -142 24 -32 59 -130 62 -175 1 -21 3 -39 5 -39 1 0 78 37 170 83 169 83
186 91 322 147 41 17 84 35 95 40 30 14 279 107 317 119 18 5 71 23 118 40 47
17 94 33 105 36 11 2 92 26 180 53 88 27 201 59 250 72 50 12 97 24 105 27 8
2 16 4 17 4 2 0 35 9 75 21 40 11 84 22 98 24 14 3 41 9 61 15 35 9 196 44
249 55 14 2 79 15 145 29 66 13 138 26 160 30 23 3 52 8 65 11 28 6 64 12 110
18 16 3 37 7 47 10 10 3 42 8 72 11 30 4 63 9 75 11 12 2 39 7 61 9 22 3 51 7
65 10 14 3 50 7 81 10 31 3 67 8 80 10 24 5 79 12 159 20 25 2 65 7 90 10 78
10 138 15 320 30 47 4 101 8 120 10 122 11 316 22 545 31 292 12 1115 6 1395
-11 41 -2 120 -7 175 -10 197 -11 241 -14 310 -21 39 -4 91 -8 117 -8 27 -1
48 -3 48 -6 0 -3 19 -5 43 -6 23 0 74 -4 112 -8 137 -13 190 -18 220 -22 17
-2 53 -6 80 -9 28 -2 66 -7 85 -9 19 -3 60 -8 90 -11 30 -3 66 -8 80 -11 14
-2 45 -6 70 -9 75 -9 108 -14 142 -19 18 -3 53 -8 78 -11 25 -3 55 -7 66 -9
39 -8 89 -15 139 -20 l50 -5 -50 14 c-117 32 -418 102 -560 131 -11 2 -29 6
-40 8 -11 2 -78 16 -150 31 -121 25 -147 30 -200 39 -47 9 -192 36 -220 41
-16 4 -41 8 -55 10 -14 2 -50 8 -80 14 -30 5 -71 12 -90 15 -19 3 -46 8 -60
11 -14 3 -45 7 -69 10 -24 3 -46 7 -50 9 -3 2 -28 6 -56 10 -27 3 -63 9 -80
12 -16 3 -43 7 -60 9 -16 3 -41 6 -55 9 -14 2 -48 7 -76 10 -28 4 -61 9 -74
11 -13 2 -44 7 -69 10 -25 3 -64 8 -86 11 -61 9 -85 12 -145 19 -54 6 -70 8
-160 19 -25 4 -65 8 -90 11 -25 2 -70 6 -100 10 -30 3 -77 8 -105 10 -27 3
-66 8 -85 10 -19 3 -66 7 -105 10 -38 3 -81 8 -95 10 -14 2 -70 6 -125 10 -55
3 -113 8 -130 11 -16 2 -70 6 -120 9 -49 3 -123 7 -164 10 -342 21 -579 28
-984 29 -214 1 -389 0 -390 -1z"/>
<path d="M7500 5016 c0 -2 9 -6 20 -9 11 -3 18 -1 14 4 -5 9 -34 13 -34 5z"/>
<path d="M4957 4653 c-1 -1 -40 -4 -87 -7 -47 -3 -98 -8 -115 -10 -16 -2 -61
-7 -100 -11 -38 -4 -77 -9 -85 -10 -8 -1 -37 -6 -65 -9 -27 -4 -63 -9 -80 -11
-16 -2 -48 -7 -70 -10 -22 -3 -53 -8 -70 -12 -16 -3 -43 -7 -60 -9 -16 -1 -30
-3 -30 -4 0 -2 -18 -6 -65 -14 -69 -12 -97 -17 -240 -47 -80 -17 -158 -33
-175 -35 -16 -3 -43 -9 -60 -14 -16 -5 -41 -11 -55 -14 -14 -2 -45 -9 -69 -16
-25 -6 -54 -13 -65 -15 -12 -1 -28 -5 -36 -8 -16 -6 -171 -46 -199 -52 -14 -3
-246 -68 -408 -114 -34 -10 -65 -16 -68 -13 -3 3 -5 1 -5 -5 0 -5 -6 -10 -12
-10 -21 0 -348 -106 -348 -113 0 -3 33 -6 73 -6 216 -2 379 -53 382 -119 1
-14 31 -9 90 14 17 6 62 23 100 37 39 14 81 30 95 36 14 7 27 12 30 13 3 1 17
7 31 13 15 6 46 16 69 22 24 6 54 19 67 27 12 8 23 12 23 9 0 -4 13 0 29 9 17
8 38 17 48 18 10 2 29 9 43 14 42 17 453 161 480 168 3 1 13 5 23 8 43 17 53
20 65 23 18 3 112 35 137 45 19 8 179 60 200 65 6 1 66 19 135 39 174 50 406
107 487 119 26 4 21 12 -8 11 -17 0 -31 -1 -32 -2z"/>
<path d="M8451 4123 c-5 -10 -9 -21 -10 -25 -1 -5 -1 -11 -2 -15 -3 -19 4 -60
12 -75 8 -14 23 -18 68 -18 35 0 62 5 68 13 16 21 14 105 -3 122 -23 22 -120
21 -133 -2z"/>
<path d="M8749 4108 c-5 -77 3 -88 68 -88 l43 0 -5 -207 c-8 -321 -15 -546
-19 -568 -3 -17 -10 -20 -51 -17 -55 3 -65 -5 -65 -60 0 -50 13 -55 140 -54
l105 1 1 30 c1 17 2 32 3 33 1 2 23 -12 50 -32 118 -87 287 -56 370 68 55 83
66 128 66 281 -1 133 -2 143 -29 198 -52 108 -130 160 -241 161 -75 1 -118
-14 -169 -59 -16 -14 -30 -25 -30 -25 -1 0 -2 80 -1 178 l0 177 -117 3 c-117
3 -118 3 -119 -20z m466 -372 c41 -18 88 -80 105 -141 18 -66 9 -208 -19 -270
-21 -46 -32 -60 -74 -94 -22 -17 -106 -31 -113 -19 -3 4 -13 8 -22 8 -39 1
-87 63 -106 137 -14 56 -13 171 3 228 17 62 61 123 106 145 47 24 74 25 120 6z"/>
<path d="M9580 4084 c-13 -33 -13 -80 0 -104 7 -14 22 -20 48 -20 20 0 46 0
57 -1 28 0 41 22 44 76 3 64 -9 75 -80 75 -55 0 -60 -2 -69 -26z"/>
<path d="M9872 4086 c-8 -10 -17 -95 -10 -97 2 0 23 -2 48 -5 69 -8 69 -8 65
-61 -2 -26 -7 -97 -10 -158 -3 -60 -7 -150 -10 -200 -14 -240 -16 -283 -17
-327 -1 -50 -2 -51 -55 -48 -58 3 -68 -5 -68 -54 0 -24 3 -47 6 -51 7 -6 89
-13 247 -19 90 -4 102 -2 103 12 0 10 2 32 4 49 4 38 -4 45 -57 49 -51 5 -59
10 -53 37 3 12 7 78 10 147 2 69 5 125 5 125 1 0 3 38 5 85 2 47 6 126 9 175
12 195 18 335 14 335 -1 1 -46 3 -98 6 -52 3 -103 6 -112 8 -10 2 -21 -1 -26
-8z"/>
<path d="M10365 4060 c-14 -23 -14 -112 0 -126 11 -12 67 -19 117 -15 10 1 19
14 24 34 7 35 7 97 0 105 -3 2 -34 7 -69 9 -45 4 -67 1 -72 -7z"/>
<path d="M11175 4000 c-4 -6 -8 -35 -10 -65 -3 -64 2 -69 77 -78 58 -7 76 10
81 77 3 40 0 50 -17 61 -25 15 -122 19 -131 5z"/>
<path d="M10773 3923 c-44 -22 -53 -31 -54 -55 -1 -15 -3 -37 -4 -48 -1 -11
-3 -28 -4 -38 -1 -16 -9 -19 -48 -18 -47 1 -48 1 -53 -35 -10 -57 1 -73 46
-74 l39 -1 -1 -65 c0 -35 -3 -102 -7 -149 -18 -229 -19 -322 -6 -348 24 -49
51 -71 93 -77 22 -4 50 -8 61 -9 26 -4 75 13 98 33 11 9 27 33 38 55 l18 38
-29 29 c-28 29 -50 37 -50 20 0 -5 -11 -23 -25 -39 -18 -22 -31 -28 -49 -25
-31 6 -39 37 -32 119 4 52 14 174 21 274 2 19 4 57 6 83 l3 48 66 -5 c37 -2
71 -1 77 2 12 7 21 87 12 97 -3 3 -34 8 -70 11 -75 7 -79 9 -74 33 3 19 8 137
6 159 -2 18 -20 14 -78 -15z"/>
<path d="M7903 3863 c-13 -2 -23 -9 -23 -14 0 -6 -4 -8 -9 -5 -14 9 -89 -72
-101 -109 -24 -74 -14 -159 24 -210 27 -35 99 -74 150 -80 17 -3 46 -9 64 -14
18 -5 35 -10 37 -10 22 -3 77 -33 82 -46 15 -41 -5 -135 -29 -135 -5 0 -16 -6
-23 -14 -20 -20 -112 -17 -150 5 -38 22 -64 66 -73 121 l-8 43 -48 -2 c-26 -1
-50 -4 -54 -7 -6 -7 -6 -255 0 -262 9 -9 65 -11 86 -3 13 5 22 17 22 29 0 21
1 21 33 -3 46 -34 85 -45 153 -42 145 7 228 98 221 242 -6 116 -49 164 -178
197 -35 10 -78 21 -95 26 -17 6 -37 10 -46 10 -40 0 -69 80 -46 124 22 40 51
54 105 52 72 -2 114 -42 129 -125 7 -36 8 -37 61 -36 l48 0 5 95 c3 53 3 111
0 130 -5 34 -7 35 -50 37 -31 2 -49 -3 -57 -14 -11 -14 -16 -14 -52 4 -38 19
-126 27 -178 16z"/>
<path d="M7267 3849 c-36 -10 -90 -51 -116 -87 -48 -69 -43 -195 12 -264 17
-21 84 -56 122 -62 17 -3 41 -8 55 -11 14 -3 41 -8 60 -11 19 -3 47 -13 61
-21 55 -33 54 -118 -2 -165 -27 -23 -40 -26 -90 -25 -41 2 -66 8 -86 23 -31
23 -62 80 -65 119 -3 27 -3 27 -65 30 -23 1 -44 -3 -46 -9 -4 -9 -3 -54 2
-232 1 -27 5 -32 29 -36 43 -6 76 6 82 30 l5 22 35 -22 c45 -30 54 -32 124
-34 56 -2 146 21 146 38 0 4 5 8 11 8 6 0 20 10 30 23 69 78 75 239 11 303
-32 31 -86 60 -127 68 -77 14 -93 17 -132 27 -74 20 -91 52 -69 130 14 48 95
71 156 44 41 -19 65 -52 75 -107 6 -32 11 -38 34 -39 32 -1 75 2 79 6 2 2 3
32 3 67 -2 55 -3 89 -10 171 -2 26 -101 25 -108 -2 -5 -19 -6 -19 -41 2 -38
23 -125 31 -175 16z"/>
<path d="M8378 3852 c-26 -3 -28 -6 -28 -53 0 -27 3 -50 8 -50 4 -1 26 -3 50
-4 24 -2 45 -5 48 -8 5 -5 5 -294 1 -442 l-2 -60 -40 -1 c-60 -2 -72 -10 -73
-52 -3 -65 -1 -65 178 -66 97 -1 165 3 170 9 4 5 7 30 7 55 -2 48 1 46 -75 49
l-33 1 1 273 c1 149 1 289 0 309 l0 37 -92 3 c-51 2 -105 2 -120 0z"/>
<path d="M6573 3805 c-53 -24 -133 -97 -133 -121 0 -8 -4 -14 -10 -14 -5 0 -9
-3 -8 -7 1 -5 -4 -21 -10 -36 -34 -81 -36 -191 -7 -321 14 -65 69 -147 133
-198 34 -27 126 -50 184 -45 126 9 228 95 268 227 18 58 20 198 4 266 -24 105
-90 201 -164 240 -46 24 -53 25 -135 29 -56 3 -80 -1 -122 -20z m204 -118 c59
-40 100 -153 97 -267 -4 -154 -61 -237 -169 -245 -77 -6 -153 70 -175 175 -19
89 -18 140 4 237 24 110 151 162 243 100z"/>
<path d="M9476 3822 c-3 -3 -6 -27 -6 -54 0 -45 1 -48 28 -49 88 -4 85 -3 86
-31 1 -16 -1 -28 -4 -28 -3 0 -6 -66 -8 -148 -1 -81 -4 -178 -7 -217 -2 -38
-4 -75 -4 -81 -1 -7 -20 -10 -51 -8 -30 1 -53 -2 -57 -9 -12 -19 -11 -97 1
-98 6 -1 22 -3 36 -4 14 -2 89 -5 168 -8 l142 -5 -1 54 c-1 30 -6 55 -11 55
-4 1 -21 3 -38 4 -16 1 -36 3 -44 4 -15 1 -15 23 0 341 9 197 9 268 1 276 -8
8 -224 14 -231 6z"/>
<path d="M10255 3778 c-23 -65 -7 -98 50 -103 22 -1 43 -3 46 -4 7 -1 5 -81
-6 -211 -2 -36 -7 -110 -11 -164 -3 -55 -7 -107 -9 -115 -1 -13 -13 -16 -54
-14 -33 1 -54 -3 -57 -11 -9 -25 -10 -87 -1 -93 11 -7 45 -10 183 -18 55 -3
112 -7 127 -9 31 -4 34 0 40 56 6 47 -9 61 -64 60 l-41 -1 7 132 c4 73 9 155
10 182 2 28 6 100 10 160 4 61 7 112 7 115 2 23 -4 37 -14 37 -7 0 -59 4 -116
7 -79 5 -103 4 -107 -6z"/>
<path d="M5927 3770 c-32 -10 -95 -55 -115 -82 -15 -20 -37 -24 -29 -5 2 6 1
22 -4 35 -8 21 -12 22 -76 16 -37 -3 -81 -7 -98 -9 -16 -2 -38 -4 -48 -4 -15
-1 -18 -8 -16 -43 4 -66 6 -67 60 -64 27 2 52 0 55 -5 2 -4 7 -41 10 -81 8
-112 13 -176 30 -333 3 -33 7 -82 9 -110 5 -67 14 -163 19 -202 3 -18 4 -33 3
-34 -1 0 -22 -2 -47 -5 -68 -8 -69 -9 -66 -57 3 -49 11 -68 29 -62 7 2 46 6
87 9 124 8 214 18 235 26 17 7 20 15 17 49 -5 50 -13 55 -76 56 -37 0 -50 4
-51 16 -11 72 -14 199 -5 199 5 0 10 -4 10 -8 0 -5 19 -19 43 -33 60 -34 162
-34 230 1 46 23 107 85 107 109 0 6 4 11 9 11 5 0 16 29 25 65 32 128 16 299
-38 399 -53 98 -125 149 -220 152 -34 1 -74 -2 -89 -6z m116 -117 c51 -31 99
-107 114 -182 8 -35 7 -169 -1 -205 -31 -138 -175 -188 -269 -94 -94 95 -104
367 -16 451 44 41 130 56 172 30z"/>
<path d="M11058 3724 c-3 -5 -6 -28 -7 -51 -2 -46 2 -49 74 -55 29 -3 30 -5
29 -48 -1 -60 -11 -196 -29 -395 -2 -16 -3 -39 -4 -51 -1 -19 -5 -20 -52 -14
-56 7 -66 -1 -73 -60 -6 -50 -12 -48 296 -74 49 -4 58 3 62 50 4 55 1 60 -46
63 -23 1 -45 4 -50 7 -8 5 -6 54 7 194 3 30 7 82 10 115 2 33 7 89 10 125 16
186 17 177 -10 184 -44 11 -212 18 -217 10z"/>
<path d="M11675 3692 c-40 -4 -115 -33 -115 -43 0 -5 -6 -9 -14 -9 -33 0 -125
-144 -142 -224 -11 -49 -11 -215 0 -256 44 -167 199 -261 371 -226 81 17 188
110 201 174 5 26 2 30 -33 44 -42 16 -83 9 -83 -15 0 -17 -57 -71 -95 -90 -56
-27 -143 -9 -187 40 -24 27 -51 93 -53 128 -1 17 -4 35 -7 41 -12 18 6 32 37
29 112 -12 155 -16 190 -20 49 -4 178 -16 222 -20 17 -1 34 2 36 9 6 16 1 166
-7 206 -16 78 -88 190 -122 190 -8 0 -14 4 -14 9 0 13 -39 23 -130 34 -14 1
-38 1 -55 -1z m106 -122 c43 -22 78 -72 88 -125 15 -79 13 -84 -28 -79 -20 3
-58 6 -86 9 -27 2 -72 6 -100 10 -27 3 -66 8 -85 9 -40 3 -41 13 -8 84 22 45
71 92 110 104 31 9 79 4 109 -12z"/>
<path d="M4805 3642 c-166 -26 -271 -172 -260 -362 7 -134 25 -195 80 -275 30
-44 104 -104 138 -112 7 -1 28 -6 47 -11 52 -12 131 -4 190 21 32 14 99 72
125 108 32 45 57 120 45 139 -11 18 -101 19 -110 0 -4 -8 -16 -33 -26 -55 -46
-98 -131 -133 -226 -94 -53 22 -138 156 -119 188 5 7 17 12 27 11 11 -1 21 -1
24 0 8 3 36 8 82 14 24 3 69 11 101 17 31 5 62 7 67 4 6 -3 10 -2 10 2 0 5 8
9 18 9 41 1 127 15 134 22 22 22 -51 234 -99 287 -62 69 -155 102 -248 87z
m124 -139 c30 -23 81 -110 81 -139 0 -6 -21 -14 -47 -18 -27 -3 -59 -8 -73
-10 -14 -3 -43 -7 -65 -11 -72 -10 -110 -16 -134 -21 -24 -5 -24 -4 -17 53 4
32 13 68 22 80 8 13 12 23 8 23 -4 0 10 16 31 35 21 19 41 32 45 30 3 -2 12 0
19 5 24 14 95 -1 130 -27z"/>
<path d="M12277 3615 c-95 -33 -148 -120 -141 -234 6 -100 47 -136 229 -201
91 -32 100 -42 100 -104 0 -56 -12 -75 -61 -100 -32 -17 -98 -11 -139 13 -39
22 -62 65 -70 125 -3 28 -7 51 -9 53 -1 1 -25 4 -51 5 l-49 3 -7 -40 c-4 -22
-10 -76 -14 -120 -4 -44 -9 -82 -10 -85 -9 -15 14 -28 55 -31 37 -3 46 -1 55
17 11 22 11 22 42 -7 74 -65 240 -72 301 -12 7 7 19 16 25 20 26 16 55 83 62
141 12 108 -17 164 -111 214 -20 11 -44 21 -53 23 -33 6 -125 46 -146 64 -19
14 -22 25 -20 61 5 63 40 95 102 93 28 -1 57 -9 72 -21 33 -24 61 -78 61 -119
0 -17 5 -35 12 -39 16 -10 98 -15 98 -6 0 4 5 46 11 92 18 147 18 150 0 158
-32 16 -88 14 -95 -3 -5 -14 -10 -13 -38 8 -57 43 -143 56 -211 32z"/>
<path d="M4085 3515 c-61 -12 -120 -43 -159 -81 -25 -26 -67 -94 -72 -119 -1
-5 -6 -28 -11 -50 -29 -129 22 -325 109 -418 62 -65 128 -91 228 -90 135 3
244 87 283 219 20 68 11 82 -50 77 -54 -5 -56 -6 -60 -34 -8 -52 -85 -147
-121 -151 -62 -5 -81 -4 -115 9 -65 26 -155 157 -124 181 11 8 75 23 147 36
14 2 36 7 50 10 14 3 36 8 50 10 41 7 184 37 202 42 14 4 15 10 8 30 -5 13 -7
24 -5 24 8 0 -45 133 -71 177 -31 53 -57 79 -108 105 -52 27 -121 36 -181 23z
m118 -127 c41 -29 62 -54 83 -101 21 -46 13 -56 -44 -60 -23 -1 -42 -5 -42 -8
0 -3 -6 -6 -12 -6 -7 0 -40 -6 -73 -12 -155 -31 -149 -32 -152 4 -4 42 23 125
50 156 46 51 137 64 190 27z"/>
<path d="M3567 3390 c-37 -11 -58 -30 -50 -43 4 -7 0 -8 -13 -2 -34 14 -128
13 -169 -3 -70 -26 -136 -104 -135 -159 1 -15 0 -37 -2 -48 -5 -34 21 -112 47
-143 40 -48 88 -61 227 -63 75 0 130 -5 139 -12 42 -31 50 -93 19 -145 -30
-49 -116 -74 -175 -50 -38 15 -83 65 -90 101 -5 20 -13 27 -29 27 -34 0 -86
-20 -86 -33 0 -21 50 -218 60 -237 8 -16 15 -17 52 -7 47 11 59 22 50 45 -4
12 0 14 19 8 61 -19 97 -21 152 -9 122 27 191 107 190 218 -1 65 -24 131 -59
171 -15 17 -90 57 -101 55 -2 -1 -57 -1 -123 -1 -115 0 -122 1 -145 25 -46 46
-22 134 42 156 75 24 135 -1 171 -74 l22 -44 50 10 c27 5 50 15 50 21 -1 14
-35 160 -50 209 -11 39 -17 41 -63 27z"/>
</g>
</svg>
